<?xml version="1.0" encoding="UTF-8"?>
<svg id="Layer_1" xmlns="http://www.w3.org/2000/svg" version="1.1" viewBox="0 0 512.1 95.8">
  <!-- Generator: Adobe Illustrator 29.7.1, SVG Export Plug-In . SVG Version: 2.1.1 Build 8)  -->
  <defs>
    <style>
      .st0 {
        fill: #fff;
      }
    </style>
  </defs>
  <path class="st0" d="M484.9,82.2c0-7.5,6.1-13.6,13.6-13.6s13.6,6.1,13.6,13.6-6.1,13.6-13.6,13.6-13.6-6.1-13.6-13.6"/>
  <path class="st0" d="M52.1,46.3c0-8.6-1.7-15-5-19.1-3.3-4.2-8.4-6.2-15.1-6.2h-7.2v52.6h5.5c7.5,0,13-2.2,16.5-6.7s5.3-11.3,5.3-20.5M77.8,45.4c0,15.7-4.2,27.7-12.6,36.2s-20.3,12.7-35.5,12.7H0V.5h31.7c14.7,0,26.1,3.9,34.1,11.6,8,7.7,12,18.8,12,33.4M159.9,94.3h23.6V.1h-23.6v94.2ZM216.6,59.1c0,6,.8,10.6,2.4,13.7s4.2,4.7,7.9,4.7,6.2-1.6,7.8-4.7,2.3-7.7,2.3-13.7-.8-10.5-2.3-13.5c-1.5-3.1-4.1-4.6-7.8-4.6s-6.2,1.5-7.8,4.5-2.4,7.5-2.4,13.6M260.9,59.1c0,11.4-3,20.4-9,26.8s-14.4,9.6-25.3,9.6-18.6-3.3-24.8-9.8c-6.1-6.6-9.2-15.4-9.2-26.6s3-20.3,9-26.6,14.5-9.5,25.3-9.5,12.7,1.5,17.8,4.4,9.1,7.1,11.9,12.6c2.8,5.4,4.2,11.8,4.2,19.1M270.3,94.3h23.6V24.3h-23.6v70ZM270.3,15.8h23.6V0h-23.6v15.8ZM341.6,76.4c3.2,0,7-.8,11.4-2.4v17.6c-3.2,1.4-6.2,2.4-9.1,3s-6.2.9-10.1.9c-7.9,0-13.6-2-17.1-6s-5.2-10.1-5.2-18.3v-28.9h-8.3v-18.1h8.3V6.3l23.8-4.1v22h15.1v18.1h-15.1v27.2c0,4.5,2.1,6.8,6.4,6.8M396.2,76.4c3.2,0,7-.8,11.4-2.4v17.6c-3.2,1.4-6.2,2.4-9.1,3s-6.2.9-10.1.9c-7.9,0-13.6-2-17.1-6s-5.2-10.1-5.2-18.3v-28.9h-8.3v-18.1h8.3V6.1l23.8-3.9v22h15.1v18.1h-15.1v27.2c0,4.5,2.1,6.8,6.4,6.8M437.4,50.6c.3-3.8,1.4-6.6,3.3-8.4,1.9-1.8,4.2-2.7,7-2.7s5.4,1,7.2,3c1.8,2,2.7,4.7,2.8,8.1h-20.3ZM470.7,31.3c-5.6-5.5-13.6-8.3-23.9-8.3s-19.1,3.2-25,9.5c-5.8,6.3-8.7,15.4-8.7,27.2s3.2,20.3,9.4,26.5c6.3,6.2,15.1,9.3,26.5,9.3s10.2-.4,14.1-1.1,7.7-2.1,11.4-4l-3.6-15.8c-2.7,1.1-5.2,1.9-7.6,2.5-3.5.8-7.3,1.2-11.4,1.2s-8.1-1.1-10.8-3.3c-2.6-2.2-4-5.3-4.2-9.2h42.2v-10.8c0-10.3-2.8-18.3-8.4-23.8M109.1,50.6c.3-3.8,1.4-6.6,3.3-8.4,1.9-1.8,4.2-2.7,7-2.7s5.4,1,7.2,3,2.7,4.7,2.8,8.1h-20.3,0ZM142.4,31.3c-5.6-5.5-13.6-8.3-23.9-8.3s-19.1,3.2-25,9.5c-5.8,6.3-8.7,15.4-8.7,27.2s3.2,20.3,9.4,26.5c6.3,6.2,15.1,9.3,26.5,9.3s10.2-.4,14.1-1.1c3.9-.7,7.7-2.1,11.4-4l-3.6-15.8c-2.7,1.1-5.2,1.9-7.6,2.5-3.5.8-7.3,1.2-11.4,1.2s-8.1-1.1-10.8-3.3c-2.6-2.2-4-5.3-4.2-9.2h42.2v-10.8c0-10.3-2.8-18.3-8.4-23.8"/>
</svg>