<svg id="Layer_1" xmlns="http://www.w3.org/2000/svg" version="1.1" viewBox="0 0 512 93.6"><defs><style>.st0{fill:#fff}</style></defs><path class="st0" d="M42.9 40.2c.3 1.8 2.1 2 3.6 1.9s1.2-.8 1.7-.3l-.6.4h.6l-.4.4.3 1.2c-.3.4-1.6-.2-2.1-.2-5.3.1-4.3 10.5 1.5 8.4l.4 1.1-.4.4.4.9h-.6c.3.6.6 2.1-.2 2.3l.8.8c-1.3.7.1 1.8-.4 2.8h.6c-.4.4-.7.4-.6 1l-.4-.2c.3 1.1.6 2.7-.4 3.4h.6l-.4 2 .6.6-.4 1 .8.6h-1c.2 1.9.4 4 0 6s-.3.7-.3.7c0 .3.5.7.4 1.1s-.5.2-.5.8.6 1.3-.1 1.4v.3c.7 0 .3 1.2-.2 1.5l.4.6c0 1-1 .9-.2 1.8-1 .4-.3.7-.6 1.5l.6.3c-.5.5-1.6.6-2.1.9s-.3.7-.8.5c.4.6 0 1.1 0 1.7 0 1.5 0 .6-.3 1.4s0 1.2.1 1.6h-.8c.2.5.2.9.8 1.1l-1.6 1.6c-.5.1-1 .3-1.5.3-1.1 0-2-.8-2.9 0-.6-.5.5-1.4-.7-1.6l.2-1.2c-.6 0-1 .8-1.3.8l-.8-.4v-.6c-.9-.5-1 0-1.6.5l.6.9c-.8-.1-1 .4-1.6.8l-.4-.9h.4v-.5h-.3v-.7l-.4-.2c-.9.3-2.2-.2-2.2-1.3s.3-.9.3-1.1-.8-.8-.9-1-.2-.6-.4-.8h-1V86h.4v-.5c-.5-.6-1.4-.1-1.7-.3s-.8-1.1-.8-1.1c-.1 0-.4.3-.7.3s-1-.3-1.1-.3c0 0 0-1.5-.6-1.8h.6c-.3-1.2.3-2.4.4-3.5.2-2-.3-3.9.2-5.8s.5-.6.5-1.2c.3-2.6-.6-6.3-.2-8.8s0-.5.3-.5c2.5.7 5.1-1.8 3.5-4.1s-2.5-1-2.4-1.7c.1-.9 1.8-.3 2.3.1v-2.4c-.4-.5-2.6-.5-3.2-.2-.4 0-.2-1.9-.1-2.1 1.8.9 3.8 0 5.7.2l.5-1.3h1.3l.1 1.3h2.5l-1.4-7.9-.3-.3h-3.4c-.5 2.7-1.3 5.3-1.4 8-.3 0-.2-.4-.2-.7v-1.7c-.1-.2-2 1.3-2.5-.6s.4-3.8 2.5-2.8v-2c-1-.7-2-.4-3.1-.3v-2.1c3.8 1.4 5.7-.6 5.5-4.4s-2.4-4.4-5.5-3.3l.2-1.4-.4-.2c.3-1.4.2-2.5.4-4.1l-.4-1.5v2c0 .6-.3 1.7-.4 2.6s.4.7-.3.7c.8.8.2 1.3 0 1.9-.2 1.7-.9 4.8-.4 6.5s.4.4.5.6-.3 2.2-.4 2.7c0 1.5-.5 2-.6 3.3s0 3.4 1 4.5v.3h-.4l.4.3-.2.8.4.2-.4.6.4.4c-1.1.6-1.3 1.7-1.2 2.9s.7 1 .8 1.9c.5-.4 2.2.4 1.8 1h-1.2c0 .1-.2-.8-.2-.8l-.6.5h-.3V62c.2 1.8.2 2 0 3.9s.2.5.2.8-.5 0-.4.3h.6c.1.6-.4.9-.4.9-.1.4.5 1-.2 1.1.6.9.1.6-.1 1.2s-.2 1-.3 1c-.3.2-1.6 0-1.8 0s-.2.5-.4.5-.9-.2-1.2 0l.2.6-1-.2.2 1c-1.2-.3-.8 1.6-2.2 1 0 0 .3 1.3.2 1.6s-.4.2-.5.3 0 .4 0 .6c-.5.9-3.1.5-2.5 2.4l-.9-.2c0-1.1-1.1-3.2-1.7-1l-.4-.6c-1 1-1.4 0-1.5 0-1 0-.1 1.7-.8 1.8v.3c.1 0-.6-.2-.6-.2l-.6.8v-.8c-.8.1-1.3.2-1.7 1l-.6-.4v.4h-.5c-.3-.6-1.1-1.6-1.8-1.6l.8-.8s-.7-.8-.7-1.1 0-1.9.5-1.7l-.4-.2c.2-.3 0-.8.2-1s.5 0 .4-.3l-1.2-.5.6-.7-.8.2C3 70.7.9 71.7.4 71s.2-1.5-.4-1.6c.5-.5.3-1 .4-1.5s1-.2-.2-.8c0-.6.3 0 .4 0 .3-.4-.3-.4-.3-.4v-.8c0-.1.3 0 .4-.4.3-.9-.1-1.6-.1-2.3s.9-1.6.1-1.6c.7-.7 0-1.4 0-2.2s.6-2.1.6-2.5-.3-.1-.4-.3c-.5-.9.6-1 .6-1.1 0-.3-.3-.4-.3-.6 0-.5.1-2 .1-2.1 0-.2-.5-.5-.4-1s.6 0 .4-.6c-1.2-.4 0-2 0-2.8s-.5-.6-.5-1c-.1-1 0-2.5.1-3.5s-.3-1.7.4-1.7c0-.1-.5-.5-.6-.7-.2-.7.3-1.9.3-2.3s-.6-.7.4-1.2c-.3-.2-.8 0-.8-.6s.6-.6.6-1c.1-1-.3-.9-.3-.9-.3-1 0-.9.2-1.5s-.3-1-.3-1.3.4 0 .4-.2c.2-.9 0-2.5.4-3.5H1v-.4c.4-.3.1-.9.8-.9v-.2c-.5 0-.6-.6-.6-1 .6.2.5-.3.8-.5s.5 0 .6-.1-.2-.8.1-1.2.9-.2 1.2-.4 0-.4.2-.5c.3-.4 1.4-.3.9-1.4l1.1-.4.2.4 1.1-.4-.2.6.5-.2.3.3.7-.4-.6-.2c.2-.2.5-.7.6-.8.5-.4.8.3.4-1.3l1-.2-.2-.4h.6l.1 1c.7.9 1-.8 1.1-1s1.5.2 1.7 0 .3-1.5.6-1.9l1-.2c.1.9.6.8.9 1.4l.2-.6.7.8.5-.4.3 1 .4-1c.8-.2 1.2.1 1.4.9s0 1.2.1 1.9.5 1.2.1 2.1h.6l-.4.5c.5.1.4.4.4.9l.5-.2c.2.4 1.1.6 1.5.2 0 .8 1.3.2 2 .7s.3 1.2.8.9-.4-.8-.4-.9c0-.9 0-3.7-.2-4.3s-.4 0-.3-.2c0-.3.3-.4.3-.6.1-1-.2-2.1-.5-3h.6c-.5-1.6 2.3-.9 3.2-1 1.4 0 .8-.5 1.1-.7s.5 0 .6-.2 0-.3 0-.5c.3-.8.5-1.7-.3-2.2.6-.6.2-1.4 1.1-1.8s.9.2.8-.4l.5.6c.3 0 1.1-.9 1.1-.9.2 0 1.7-.6 1.8-.6.3 0 .7.5 1.3.2l-.2 1.4c1.1-.5.9 0 1.3.2s.7 0 .8.2.2 1.2.2 1.5c.7-.3 0-1 .2-1.6.7-.3.8.3.8.3.1 0 .3-.1.4 0 1 .4-.1 1.8.7 1.4.6.5.6 1.1 1 1.6h1.2l-.2-.5.7.4.2-.4c.1.6.7.5.8.6.4.3 0 .8.2 1.1s.6.6.6.6c.2 0 .7-.3.9-.2s0 .4.1.6.4.3.6.4c.2.4.1 1.1.2 1.2.2.2.7.1.9.5.3.9-.4.9-.4 1 0 .5 1.5 1.4 1.3.3s-.7-1 0-1.3c-.5-1.2-.7-1.9-.8-3.1s.4-.9-.2-1.5h.4l-.5-.7c.4-.9 0-2.3 0-3.5s0-1.1.5-1.2L47 9V8c1.3.3 2.6-.5 4 0l.5-1.1h.8l-.4-1.2h.6c.1-.4-.4-.8-.4-1s.4-.5.4-.7c0-.3.3-2 .4-2.2.2-.4.9-.3.7-1 .5.3 1.1.5.8 1.2.1 0 1.6-.2 1.8-.3.3-.2.4-.6.6-.8s.7 0 .9-.5l.3 1 .6-.2-.2.7c.4.2.5.4.6.9.8-.8 2.2.3 1.8 1.2.6 0 .4-.6 1-.8s.6-.2.9-.1c-.5 1.1.9 2.1 1.3 3.1l.4-.4h2c-.2 1.1.8 1.2 1.4 1.9l-.8.5c.6-.3.8.1 1.3.3s.5 0 .6 0-.1.9.6 1.1l-.2.7h.8c-.4 1.1-.3 2.3 0 3.4l-.4.3h.6c0 .1-.4 1.3-.4 1.3l.4.4-.4.9.4-.2c.6.6.1.9.1 1.2 0 1.1.4 2.1.1 3.2l.4-.2c.4.6-.2 1.4-.2 1.6 0 .4.8 1.8 0 2 .2.3.4.7.5 1.1s-.4.7.3.9l-.4.2.2.8-.4.3h.6c0 .7-.3 1.7-.2 2.2s.5.6.6.8c0 .3-.8 1.8 0 1.9l-.4 1.2c.6.1.2 1 .2 1.5s.8.9 0 .9l.4.5-.4.2c.4.8-.3 1.2.6 1.5h-.4v.4h.4v.5c-1 .2-1.1 2 0 2.1-.5.1-.9 1.4-.2 1.3v.4h-.4l.4.2-.4.8.4.5h-.6l.4.9-.4.3.6.3-.6.6h.4c-.3.8.7 1.2-.1 1.4v1.2l.3.2v1l-.6.1.6.6-.6.4h.5v.4h.3c0 .1-.6.9-.6.9h.4c-.3.5 0 .9-.6 1h.6c.1.5-.3.7-.3 1s.4.7.3.9-.3.1-.3.2c0 .3.3 1.3.3 1.7s-.6 1.2-.5 1.3.2 0 .4.2c.8.9.1.5-.1.8s.2.5 0 .8-.3.3-.4.6.3 0 .4.2c.5.8-.2 1.1-.3 1.5-.1.9.8 2.1-.3 2.6l.8.3-.4.2.4.9h-.6c-.2.9 1.1 1.1-.2 1.7h.5c.4.7-.4.8-.5 1-.1.4 0 1.3 0 1.7s-.5.6-.5.9.6.7.6 1.1-.3 0-.3.2.2.5-.5.5l.4.2c0 .6-.8 3.1-1.2 3.3s-.7 0-.9 0-1.2 2.5-.6 2.9l-.8.3c-.2.4.4.3.4.4 0 .4-.4.7-.4 1s.6.8.4 1.3h-.4l.1.4-.7.2c.3.4-.2 1.4-.8 1.2l.2.6c-.4.3-3.5-.4-2.5-1.6-1 .2-.7 1.6-1.8.5l.4-.7c-.6.2-1.1-.7-.8-1.2H61c0 .1-.3.8-.3.8-.9-.2-.8-1.2-1.8-1.3s-.8.5-1.2.6-1.8.2-1.4-.5c-.4-.2-1.4 0-1.7-.3s-.4-.8.1-.8c-.8-.8-.4-.7-.4-1.4s-1-1.2-1.2-1.4 0-.4 0-.5c-.1-.2-1.4-.2-.9-1.4-.8-.3-1 .4-1.1.4 0 0-1.6-.7-1.8-.8s-.1-.3-.3-.4c-.3-.1-.6 0-.7-.1s0-.4 0-.5-.4-.2-.5-.3c-.2-1.3.5-2.6.2-4.1s-.3-.3-.3-.4.8-1.6.9-2c0-.4-.4-.2-.4-.6 0-.6.5-.8.6-1.4s.1-2.8.2-3.5-.6-.7-.3-1h.3c-.6-.5 0-1.3 0-1.9s-.4-.1-.4-.2c0-.6.3-1.8.3-2.3.1-1.1-.8-2.3.3-3.3-.9 0-.5-2-.3-2.6.3-1.4.9-2.1.7-3.8s-1.5-3.4-1-4.6.3-.2.3-.3c0-.3-.5-2.5-.4-2.6h.6c0-.1-.6-.2-.6-.2.6-1.1 0-1.9 0-3s.1-2.5.2-3.5-.3 0-.4-.2c-.1-.4 0-1.2-.4-1.4l.2 1.1c-.6.2-.3.7-.4 1.3h-1.4v5.4c0 .8-1.4.8-1.4 0v-5.4h-2.2c.2 2-.3 4.5 0 6.4zm5.5-15.9c-.6-.5-.2-.9-.3-1.4s-.5-.7.1-1.4l-.8-.3.2 1.3-.4.2c.6.7.3 1.9.6 2.7l-.4.2c.7.2.2.3.3.6s.2.4.2.5c0 .5-.2 1.1 0 1.7l.6-.2-.4-.7.4-.2c-.3-.3-.4-2.7-.3-3s.3 0 .4 0zm-34.7 9.4c-3.1.8-3.4 7.9.5 8.4s3.1-.2 3.8-1.9c1.3-3.2-.3-7.5-4.3-6.5zm21.9.2c-4.5-2-6.3 5.2-3.8 7.5s3.6 1.1 3.8.3v-2.2c-2 1-2.6-.3-2.3-2.2s2.1-1.1 2.3-1.3v-2.1zm18.5 2.5c.3-2.4 0-3.1-2.6-2.7s-3 3-1.4 4.5 1.9.8 1.9 1.3c-.2 1.2-2.3-.3-2.5 0v2.3c2.3 1.5 6.3-.4 5-3.3s-1.9-1.1-2.7-2c.6-.7 1.7-.4 2.3 0zM7.3 33.9H4.9v8.2h2.4v-3.3h1.2v3.3h2.4v-8.2H8.5v2.9H7.3v-2.9zm14.1 0h-2.5v8.2h4.3v-2.4h-1.8v-5.9zm19.5 0h-3.5l-1.6 8.2h2.4l.3-1.4h1.4c-.2.4 0 1.2.3 1.4h2.2l-1.6-8.2zm18.8 0h-5.1v1.8l1.6.2v6.3h2.2v-6.3h1.4v-2zm-50.5 10H4.9v8.2h4.3v-2h-2v-1.2l1.7-.2v-1.8c-1.1.2-2.3-.1-1.4-1.1h1.6v-2zm.6 8.2h3.6s.9-.4 1.1-.5c2-1.3 2.2-6.1 0-7.3s-1.1-.4-1.1-.4H9.8v8.2zm9-8.2h-2.2v6.4c0 .3.6 1.2.9 1.5 1.1.9 3.6.8 4.4-.3s.4-.9.4-1v-6.6h-2.2v5.6s-.2.3-.2.5H19c0-.1-.2-.4-.2-.5v-5.6zm20.6 0h-5.1v2h1.4v6.3h2.4v-6.3h1.4v-2zm2.5 0h-2.2v8.2h2.2v-8.2zm11 0H50v8.2h2.4v-4.3l1.4 4.2h2.6v-8.1h-2v4.7L53 43.9zm8.8 0h-3.5l-1.6 8.2h2.5c-.4-2 1.8-1.9 1.8 0h2.3l-1.6-8.2zm4.3 0h-2.4v8.2h4.1v-2.2h-1.8v-6.1zM9.6 54.1H4.5v2h1.4v6c.6.6 1.6.2 2.4.3v-6.3h1.4v-2zm4.8 0c-1.1-.2-3 .2-4.2 0v8.2h2.2c0-.4-.2-2.9.3-2.9l1.3 2.8h2.4l-1.3-3.3c1.6-1 1.2-4.4-.5-4.8zm4.4 0h-2.2v6.4c0 .4.8 1.5 1.2 1.7s2.5.2 3.1 0 1.4-1.3 1.4-1.8V54h-2.2v5.6l-.4.4h-.5c-.1 0-.5-.5-.5-.6V54zm14.7 0h-5.1v2c.5 0 1.2-.2 1.6.3v6h2.2v-6.3h1.4v-2zM269.2 18.4l10.6 24.7 10.7-24.7h9V81s.2.2.2.3h-12.1L288 51h-.5c0-.1-7.3 16.4-7.3 16.4h-.7c0 .1-7.3-16.4-7.3-16.4h-.6c0-.1.4 30.2.4 30.2h-11.4V18.4h8.7zM349.1 18.4 360.5 46l.2-27.6h11.2v62.9h-7.5l-12-27.8.3 27.8h-11.3l.3-62.9h7.4zM318.2 17.5c13.7-1.2 17.3 6.5 18.1 18.6s.3 16.1 0 23.9c-.4 11.2-.7 21.8-14.8 22.4-10.9.5-15.4-4.9-16.6-15.2s-.7-20.4-.4-29.2 1.7-19.6 13.7-20.6zm1.4 10.7c-.7.1-1.6 1-1.9 1.6-.6 1.2-.9 4.6-.9 6.1-.4 8.6-.4 19.4 0 28s.3 4.7 1.1 6.2c1.1 2 4.1 2.1 5.3.2s1-4.7 1.1-6.3c.4-8.6.4-19 0-27.6s-.2-5.1-1.1-6.7-2-1.7-3.4-1.4zM209.4 36.6h-11.6c0-2.2 0-7.8-3-8s-4.2 5.1-3.6 7.9c1.3 5.4 9.4 8.9 13.2 12.9 4.7 4.9 5.9 11.7 5.2 18.3-1.1 10-7.2 15.6-17.5 14.8-10.4-.8-13.8-10.7-13.2-19.8h11.8c.1 2.5 0 8.2 3.4 8.6s4.1-5 3.5-7.8c-1.2-6-6.2-8-10.4-11.6-6.2-5.3-8.5-11.2-7.9-19.5s9.1-16.8 19.8-14.7 10.5 11.1 10.4 18.9zM176.5 18.4v10.8h-12.6v13.9h9.9l.3.3v11.8h-10.2v15.3h12.7l.3.3v10.5h-25.1l.3-62.9h24.4zM386.3 18.4l4.8 22.3 4.9-22.3h11.5l.2.4L397 55.9v25.4h-12.2l.2-24.8-10.5-37.7.3-.4h11.5zM239.3 18.4v10.8h-8.2v52.1H219V29.2h-8.5V18.4h28.8zM148.5 29.2H140v52.1h-12.1l.2-52.1h-8.6V18.4h28.7l.3.3v10.5zM255 81.3h-12.1V18.4h11.8l.3.3v62.6zM414.7 37.8c-.9-.3-.4-4.5-.3-5.4 1.2-8.9 7.1-14.4 16.3-13.8 8.5.5 13.1 6.7 13.6 14.8s-.2 11.6-5.1 14.9c6.1 3.2 6.4 10.9 6.1 17-.6 10.6-6.5 16.6-17.4 16-10.1-.6-14-7.9-14.4-17.1s-.3-3.5.7-3.8h12.1c1.4.2.8 3.4.9 4.6s.3 3.3 1.4 3.7 1.7.1 2.2-.7c.8-1.5.7-8.4.3-10.2s-1.2-2.6-3-3-4.3.2-4.5-1.5-.2-7.2 0-9c.3-3.3 5.3-.3 7-2.8s1.1-8.7-.2-9.8-2.5 1.1-2.8 2.5 0 3.8-.7 3.8h-12.1zm1.3 24.9c0 6.8 1.5 13.7 8.8 15.8s14.9-.2 17.2-7.2c1.6-4.9 2.1-16.3-2.3-19.9s-4.4-1.3-4-3.4 2-1.3 2.8-1.9c4.2-3.3 4.1-11.5 2.9-16.2s-5-8.4-10-8.8c-9.8-.9-15 5.2-15 14.7h8.6c0-3.2.8-7.2 5-6.6s3.7 8.1 3.2 11c-.8 4.4-3.4 4.7-7.4 4.8v7.3c2.3.4 5 .6 6.4 2.7s1.6 7.2 1.4 10-.6 5.7-3.1 6.1c-5.8 1.1-5.5-4-5.7-8.2h-9zM460.6 43.7c.1.1 1.4-.8 1.7-1 9.6-4.6 15.4 4.5 15.9 13 .8 12.6-.9 26.7-17.1 25.6-11-.8-13.6-9.2-14-18.7-.3-7.6-.4-16.9 0-24.5.4-8 2.2-16.8 11.2-19s16.6 1.7 18.6 10.7.8 5.1.7 6.7-.4 1.4-1.5 1.5c-3.5.3-7.4-.2-11 0-.5 0-.9-.4-1-.9-.3-1.2.4-5.3-1.4-5.7s-1.4.2-1.7 1.2-.5 3.5-.5 4.8v6.4zm14.7-8.1c0-6.8-2.7-13.8-10.3-14.6-13.2-1.5-15.3 8.4-15.7 19-.3 7.8-.8 23.6 1.3 30.7 3.2 10.9 19.7 11.1 24 1.2 2.2-5 2.3-18.5-.3-23.4s-7.2-6-11.4-3.6-3 3.7-4.3 1.9c.1-3.9-.3-8.2 0-12.1s.8-5.5 3.6-5.8 4.4 3.8 4.4 6.7h8.8zM484.8 77.7c-3.7-3.6-4.5-9.9-4.8-14.9-.4-7.9-.4-17.6 0-25.5s2.9-17.9 14.2-18.7 17 7.8 17.5 19.7.3 16.2 0 23.5S510 78.5 501 80.7c-5 1.2-12.4.8-16.3-3zM496 20.8c-12.6 0-13.5 8.9-13.8 19.2s-.4 18.2.4 26.1c.7 7 3.3 12.3 11.1 12.8 12.1.9 15.3-5.2 15.8-16.2s.4-17.8 0-25.7-2.8-16.2-13.4-16.3zM95 12.8c.1-.7 1.3-.8 1.8-.5s.5.7.5.7v75.1h-2.4V12.8z"/><path class="st0" d="M46 45.9c1.2-.1 1.6 3.9.1 4s-1.7-3.9-.1-4zM27.6 36.1c.8.7.6 4.1-1 3.6s-.8-5.2 1-3.6zM31.7 48.8H31l.3-2.6.4 1.5v1.1zM15.4 36.1c.7.6.8 3.8-.8 3.6s-.9-5 .8-3.6zM12.1 49.9v-3.8l.5-.3c1.6.7 1.5 3.8-.5 4.1zM12.3 57.4c0-.4-.2-1.6.5-1.5 1.3.4.8 1.7-.5 1.5zM39.4 36.6l.2 2.2h-.8s.1-1.6.2-1.9-.1-.3.4-.3zM60.3 48.8c-1.4.1-.3-1.5-.6-2.3.3 0 .2.4.3.6s.4 1.7.3 1.8zM462.9 52.3c2.5 0 3.8 2.6 4 4.7s.3 9.2-.5 11.3c-1 3.1-5.2 3.8-6.9 1.1s-1.4-11-.8-13.5 2-3.6 4.1-3.7zm-1.2 16.2c.3.3 1.5.3 1.9.1.7-.3.9-1.5 1-2.2.3-1.9.5-9.5-.3-11s-2.2-.9-2.9.4c-1 2-.8 7.5-.5 9.9s.5 2.4.8 2.8zM494.9 28.6c4.7-.8 5.3 3.8 5.5 7.3.6 9.8-.3 20.3-.2 30.2-.3 2.2-1.1 4.9-3.6 5.2s-4.3-1-4.9-3.7-.4-3-.5-4.2c-.4-8.2-.4-18.7 0-26.8s.3-4.5 1.1-6 1.5-1.7 2.6-1.9zm.2 2.4c-1.3.4-1.3 3.7-1.5 4.7.4 9.3-.6 19.1 0 28.4 0 1.5.3 5 2.3 5s2.1-2.8 2.2-4.2c.8-10.1-.3-21.5-.3-31.6-.3-1.5-.8-2.9-2.7-2.3z"/></svg>