<?xml version="1.0" encoding="UTF-8"?>
<svg id="Layer_1" xmlns="http://www.w3.org/2000/svg" version="1.1" viewBox="0 0 512 397.6">
  <!-- Generator: Adobe Illustrator 29.7.1, SVG Export Plug-In . SVG Version: 2.1.1 Build 8)  -->
  <defs>
    <style>
      .st0 {
        fill: #fff;
      }
    </style>
  </defs>
  <path class="st0" d="M92.8,396.8v-26.4c0-10.1-6.1-16.7-16.7-16.7s-11,1.7-15,7.5c-3.1-4.8-7.5-7.5-14.1-7.5s-8.8,1.3-12.3,6.1v-5.3h-9.2v42.2h9.2v-23.3c0-7.5,3.9-11,10.1-11s9.2,3.9,9.2,11v23.3h9.2v-23.3c0-7.5,4.4-11,10.1-11s9.2,3.9,9.2,11v23.3h10.3,0ZM229.6,354.5h-15v-12.8h-9.2v12.8h-8.4v8.4h8.4v19.4c0,9.7,3.9,15.4,14.5,15.4s8.4-1.3,11.4-3.1l-2.7-7.9c-2.7,1.7-5.7,2.2-7.9,2.2-4.4,0-6.1-2.7-6.1-7v-18.9h15v-8.4h0ZM307.9,353.6c-5.3,0-8.8,2.7-11,6.1v-5.3h-9.2v42.2h9.2v-23.8c0-7,3.1-11,8.8-11s3.9.5,5.7.9l2.7-8.8c-1.8-.4-4.5-.4-6.2-.4h0ZM189.6,358c-4.4-3.1-10.6-4.4-17.2-4.4-10.6,0-17.6,5.3-17.6,13.6s5.3,11,14.5,12.3l4.4.5c4.8.9,7.5,2.2,7.5,4.4s-3.5,5.3-9.7,5.3-11-2.2-14.1-4.4l-4.4,7c4.8,3.5,11.4,5.3,18,5.3,12.3,0,19.4-5.7,19.4-13.6s-5.7-11.4-14.5-12.8l-4.4-.5c-3.9-.5-7-1.3-7-3.9s3.1-4.8,7.9-4.8,10.6,2.2,13.2,3.5l3.9-7.5h.1ZM435,353.6c-5.3,0-8.8,2.7-11,6.1v-5.3h-9.2v42.2h9.2v-23.8c0-7,3.1-11,8.8-11s3.9.5,5.7.9l2.7-8.7c-1.8-.5-4.4-.5-6.2-.5h0ZM317.1,375.6c0,12.8,8.8,22,22.4,22s10.6-1.3,15-4.8l-4.4-7.5c-3.5,2.7-7,3.9-11,3.9-7.5,0-12.8-5.3-12.8-13.6s5.3-13.2,12.8-13.6c3.9,0,7.5,1.3,11,3.9l4.4-7.5c-4.4-3.5-8.8-4.8-15-4.8-13.6,0-22.4,9.2-22.4,22ZM402.4,375.6v-21.1h-9.2v5.3c-3.1-3.9-7.5-6.1-13.2-6.1-11.9,0-21.1,9.2-21.1,22s9.2,22,21.1,22,10.6-2.2,13.2-6.1v5.3h9.2v-21.3h0ZM368.6,375.6c0-7.5,4.8-13.6,12.8-13.6s12.8,5.7,12.8,13.6-5.3,13.6-12.8,13.6c-7.9-.5-12.8-6.2-12.8-13.6ZM258.2,353.6c-12.3,0-21.1,8.8-21.1,22s8.8,22,21.6,22,12.3-1.7,17.2-5.7l-4.4-6.6c-3.5,2.7-7.9,4.4-12.3,4.4s-11.4-2.7-12.8-10.1h31.2v-3.5c.4-13.6-7.5-22.4-19.4-22.4h0ZM258.2,361.6c5.7,0,9.7,3.5,10.6,10.1h-22c.9-5.7,4.8-10.1,11.4-10.1ZM487.4,375.6v-37.8h-9.2v22c-3.1-3.9-7.5-6.1-13.2-6.1-11.9,0-21.1,9.2-21.1,22s9.2,22,21.1,22,10.6-2.2,13.2-6.1v5.3h9.2v-21.3ZM453.5,375.6c0-7.5,4.8-13.6,12.8-13.6s12.8,5.7,12.8,13.6-5.3,13.6-12.8,13.6c-7.9-.5-12.8-6.2-12.8-13.6ZM144.7,375.6v-21.1h-9.2v5.3c-3.1-3.9-7.5-6.1-13.2-6.1-11.9,0-21.1,9.2-21.1,22s9.2,22,21.1,22,10.6-2.2,13.2-6.1v5.3h9.2v-21.3h0ZM110.4,375.6c0-7.5,4.8-13.6,12.8-13.6s12.8,5.7,12.8,13.6-5.3,13.6-12.8,13.6c-7.9-.5-12.8-6.2-12.8-13.6ZM195.7,158.3c0-50.6,23.8-95.5,60.3-124.5C229.1,12.8,195.3,0,158.3,0,70.8,0,0,70.8,0,158.3s70.9,161.6,158.3,158.3c54.4-2.1,88.5-22.9,97.7-33.9-36.5-28.6-60.3-73.9-60.3-124.5h0ZM512,158.3c0,87.5-70.8,156.3-158.3,158.3-55.2,1.3-83.4-19.7-97.7-33.9,36.9-29.1,60.3-73.9,60.3-124.5s-23.8-95.5-60.3-124.5C282.8,12.8,316.7,0,353.6,0c87.6,0,158.4,71.3,158.4,158.3Z"/>
</svg>