<?xml version="1.0" encoding="UTF-8"?>
<svg id="Layer_1" xmlns="http://www.w3.org/2000/svg" version="1.1" viewBox="0 0 512 109.2">
  <!-- Generator: Adobe Illustrator 30.0.0, SVG Export Plug-In . SVG Version: 2.1.1 Build 123)  -->
  <defs>
    <style>
      .st0 {
        fill: #f4f4ed;
      }
    </style>
  </defs>
  <path class="st0" d="M212.9,21.8v65.5h-11.4v-51.4h-.2l-20.3,51.4h-7.6l-20.8-51.4h-.2v51.4h-10.5V21.8h16.4l18.8,48.5h.3l19.9-48.5s15.6,0,15.6,0ZM222.3,26.8c0-1.8.6-3.3,2-4.5s2.9-1.8,4.7-1.8,3.6.6,4.9,1.8,2,2.7,2,4.5-.6,3.3-2,4.5-2.9,1.8-4.9,1.8-3.5-.6-4.7-1.8c-1.2-1.4-2-2.9-2-4.5ZM234.6,40.3v47h-11.1v-47s11.1,0,11.1,0ZM268.1,79.3c1.7,0,3.5-.3,5.5-1.2,2-.8,3.8-1.8,5.5-3v10.3c-1.8,1.1-3.8,1.8-6.1,2.3s-4.7.8-7.4.8c-7,0-12.6-2.1-16.8-6.5-4.4-4.4-6.5-10-6.5-16.7s2.3-13.8,6.7-18.7,10.6-7.3,18.8-7.3,4.2.3,6.2.8c2.1.5,3.8,1.2,5,1.8v10.6c-1.7-1.2-3.5-2.3-5.2-2.9-1.8-.6-3.6-1.1-5.5-1.1-4.4,0-7.9,1.4-10.6,4.2s-3.9,6.7-3.9,11.5,1.4,8.5,3.9,11.1c2.6,2.6,6.1,3.9,10.5,3.9h0ZM310.4,39.6c.9,0,1.7,0,2.4.2s1.4.3,1.8.5v11.2c-.6-.5-1.4-.9-2.6-1.2s-2.4-.6-4.1-.6c-2.7,0-5,1.2-6.8,3.5s-2.9,5.8-2.9,10.6v23.7h-11.1v-47h11.1v7.4h.2c1.1-2.6,2.6-4.5,4.5-6.1,2.1-1.4,4.5-2.1,7.4-2.1h.1ZM315.3,64.6c0-7.7,2.3-14,6.5-18.5,4.4-4.5,10.5-6.8,18.2-6.8s13,2.1,17.1,6.5,6.2,10.3,6.2,17.7-2.3,13.6-6.5,18.2c-4.4,4.5-10.3,6.8-17.9,6.8s-13-2.1-17.3-6.4c-4.2-4.4-6.4-10.3-6.4-17.6h0ZM326.8,64.2c0,4.9,1.1,8.6,3.3,11.2s5.5,3.9,9.6,3.9,7.1-1.2,9.3-3.9c2.1-2.6,3.2-6.4,3.2-11.5s-1.1-8.8-3.2-11.5c-2.1-2.6-5.3-3.9-9.1-3.9s-7.1,1.4-9.4,4.1c-2.6,2.9-3.6,6.7-3.6,11.7h0ZM379.9,52.8c0,1.5.5,2.9,1.5,3.8s3.2,2,6.7,3.3c4.4,1.8,7.6,3.8,9.3,5.9,1.8,2.3,2.7,4.9,2.7,8s-1.7,7.9-5.2,10.6c-3.3,2.7-8,3.9-13.8,3.9s-4.1-.3-6.5-.8-4.4-1.1-6.1-1.8v-10.9c2,1.4,4.2,2.6,6.5,3.3s4.4,1.2,6.4,1.2,4.4-.3,5.5-1.1c1.2-.8,1.8-1.8,1.8-3.5s-.6-2.7-1.8-3.9c-1.2-1.1-3.6-2.3-7-3.6-4.1-1.7-7-3.6-8.6-5.8s-2.6-4.9-2.6-8.2,1.7-7.7,5-10.5,7.7-4.1,13-4.1,3.5.2,5.5.6,3.8.9,5.2,1.4v10.8c-1.5-.9-3.2-1.8-5.2-2.6s-3.9-1.1-5.8-1.1-3.8.5-4.9,1.2c-1.1,1.1-1.7,2.1-1.7,3.6v.3h.1ZM404.8,64.6c0-7.7,2.3-14,6.5-18.5,4.4-4.5,10.5-6.8,18.2-6.8s13,2.1,17.1,6.5,6.2,10.3,6.2,17.7-2.3,13.6-6.5,18.2c-4.4,4.5-10.3,6.8-17.9,6.8s-13-2.1-17.3-6.4c-4.1-4.4-6.4-10.3-6.4-17.6h0ZM416.3,64.2c0,4.9,1.1,8.6,3.3,11.2s5.5,3.9,9.6,3.9,7.1-1.2,9.3-3.9c2.1-2.6,3.2-6.4,3.2-11.5s-1.1-8.8-3.2-11.5c-2.1-2.6-5.3-3.9-9.1-3.9s-7.1,1.4-9.4,4.1c-2.4,2.9-3.6,6.7-3.6,11.7h0ZM489.7,49.4h-16.5v37.9h-11.2v-37.9h-7.9v-9.1h7.9v-6.5c0-4.9,1.7-8.9,4.9-12.1s7.3-4.7,12.3-4.7,2.6.2,3.6.2,2,.3,2.7.6v9.6c-.3-.2-1.1-.5-2-.8s-2-.5-3.2-.5c-2.3,0-4.1.8-5.3,2.1s-1.8,3.6-1.8,6.4v5.6h16.5v-10.6l11.1-3.3v14h11.2v9.1h-11.2v22c0,2.9.6,4.9,1.5,6.1,1.1,1.2,2.7,1.8,5,1.8s1.4-.2,2.3-.5,1.7-.6,2.3-1.1v9.1c-.8.5-1.8.8-3.5,1.1-1.7.3-3.2.5-4.9.5-4.7,0-8.2-1.2-10.5-3.6s-3.5-6.2-3.5-11.2l.2-24v-.2h0ZM0,0h51.9v51.9H0V0ZM57.3,0h51.9v51.9h-51.9V0ZM0,57.3h51.9v51.9H0v-51.9ZM57.3,57.3h51.9v51.9h-51.9v-51.9Z"/>
</svg>