<svg id="Layer_1" xmlns="http://www.w3.org/2000/svg" version="1.1" viewBox="0 0 511.9 176.8"><defs><style>.st0{fill:#fff}</style></defs><g id="Capa_2"><g id="Capa_1-2"><g id="Capa_2-2"><g id="Capa_1-2-2"><path class="st0" d="M159.9 85.3c-1.5-24.6-23.5-44.1-50.3-44.1s-50.4 21-50.4 46.9S81.7 135 109.6 135c14.3.1 27.9-5.6 37.8-15.9 1.1-1 1.7-2.4 1.7-3.9 0-3.2-2.6-5.8-5.8-5.8h-.3c-1.9 0-3.7.8-4.9 2.3-7.5 7.7-17.7 11.9-28.4 11.8-19.7 0-35.9-13.9-37.8-31.7h81.9c3.2.2 6-2.2 6.2-5.4v-1.1m-87.8-4.6c3.6-16.1 19-28.1 37.3-28.1 17.4-.4 32.9 11.3 37.3 28.1H72.2zM186.1 0c-3.2-.2-6 2.3-6.1 5.5v123.8c0 3.4 2.7 6.1 6.1 6.1s6.1-2.7 6.1-6.1V5.8c0-3.2-2.6-5.8-5.8-5.8h-.3M48 43.2h-1.3c-13.2.8-25.5 6.6-34.5 16.2V46c0-3.2-2.6-5.8-5.8-5.8h-.3c-3.2-.2-6 2.3-6.1 5.5v84.4c0 3.2 2.6 5.8 5.8 5.8h.3c3.2.2 6-2.3 6.1-5.5V88.5C13 70.3 28.5 55.7 48 54.6c3.1.6 6.2-1.4 6.9-4.5.6-3.1-1.4-6.2-4.5-6.9-.8-.1-1.6-.1-2.3 0M461.5 41.2c-14.4 0-28.2 5.8-38.1 16.2V47.1c-.3-3.4-3.3-5.9-6.7-5.5-2.9.3-5.3 2.6-5.5 5.5v123.6c0 3.4 2.7 6.1 6.1 6.1s6.1-2.7 6.1-6.1v-52c9.9 10.5 23.7 16.4 38.1 16.2 27.8 0 50.4-21 50.4-46.9s-22.6-46.9-50.4-46.9m0 82.3c-20.9 0-37.8-15.8-37.8-35.3s17-35.3 37.8-35.3 37.8 15.8 37.8 35.3-17 35.3-37.8 35.3M345.4 41.1c-3.7 0-7.4.4-11 1.1l-1.1.2h-.4l-1 .3h-.4l-1.1.3h-.3l-1.1.3h-.4c-.9.3-1.8.6-2.7 1l-.5.2-.8.3-.6.3c-6.9 3-13.1 7.6-18 13.4 5.6 0 11 2.1 15.2 5.8 20.2 14.3 37.5 5.8 37.5 5.8 2.5-1.3 5-2.4 7.6-3.3-16.1-3.6-23.3-14.7-32-14.3 4.1-.6 8.2-.7 12.3-.4 16 .1 30.2 10.4 35.3 25.6.9 3.1 1.4 6.3 1.4 9.5 0 19.5-17 35.3-37.8 35.3s-37.8-15.8-37.8-35.3V87c0-25.8-22.6-46.4-50-46.4s-50 20.8-50 46.5 22.4 46.5 50 46.5 7.4-.4 11-1.1l1.1-.2h.4l1-.3h.4l1-.3h.4l1.1-.3h.3c.9-.3 1.8-.6 2.7-1l.6-.2.8-.3.6-.3c6.9-3 13.1-7.6 18-13.4-5.6 0-11-2.1-15.2-5.8-20.2-14.4-37.4-5.8-37.4-5.8-2.4 1.3-4.9 2.5-7.5 3.4 16.1 3.6 23.3 14.7 32 14.3-4.1.6-8.2.7-12.3.4-16.1 0-30.3-10.3-35.4-25.5-.9-3.1-1.4-6.3-1.4-9.5 0-19.5 17-35.3 37.8-35.3s37.8 15.8 37.8 35.3v.2c0 25.6 22.5 46.3 50 46.3s50.3-20.9 50.3-46.7-22.4-46.5-50-46.5"/></g></g></g></g></svg>