<?xml version="1.0" encoding="UTF-8"?>
<svg id="Layer_1" xmlns="http://www.w3.org/2000/svg" version="1.1" viewBox="0 0 512 169.4">
  <!-- Generator: Adobe Illustrator 30.0.0, SVG Export Plug-In . SVG Version: 2.1.1 Build 123)  -->
  <defs>
    <style>
      .st0 {
        fill: #f4f4ed;
      }
    </style>
  </defs>
  <path class="st0" d="M305.1,1.5c5.5.4,11.1,1.8,14.7,6.4,5.4,6.8,4.8,18.2-2.2,23.6-1.4,1.1-3.2,1.5-4.3,2.9,16.6,3,17,25.5,3.8,33.4-1.8,1.1-6.4,3-8.4,3h-37V2.2l.7-.7h32.8-.1ZM281.2,31.3h21.7c2,0,7-1.9,8.5-3.3,4.3-4.2,3.8-14.6-2.1-17.1s-4.5-1.5-5.1-1.5h-23v21.9ZM281.2,62.9h26.1c.7,0,3.3-1.3,4-1.7,7.1-4,8.8-17,.9-19.9s-5-2.1-5.8-2.1h-25.2v23.6h0ZM137.1,98.3l36.4,56.1v-56.1h8.7v69.2h-9.8l-36.6-55.1v55.1h-8.8v-69.2h10.1ZM156.8,1.5l36.4,56.1V1.5h8.7v69.2h-10.5l-35.9-55.1v55.1h-8.8V1.5h10.1ZM432.5,1.5c17.6,1.8,23.3,20.9,11.4,32.8l-5.9,3.1c16,3.1,6.8,23.4,14.5,33.3h-10.3c-2.5-3.7-1.5-9.4-2-13.8s-1.4-10.6-4.6-13.4-3.2-2.2-3.9-2.2h-26.1v29.3h-9.2V1.5h36.1ZM405.6,33.5h22.6c2.2,0,6.7-1.5,8.5-2.9,5.3-3.9,5.4-14.7.4-18.8s-4.7-2.5-5.4-2.5h-26.1v24.1h0ZM285.8,98.3c5.6.5,11.6,2.8,15.1,7.2,7,8.9,3.6,25.8-8.3,28.5,1.5.9,3.2,1.1,4.8,2.2,9,6.2,3,22.9,9.2,31.3h-10.5c-2.8-7.4.9-25.2-8.1-28.4-2.6-.9-2.4-.9-2.6-.9h-25.2v29.3h-9.2v-69.2h34.8ZM260.2,130.3h23c2.2,0,6.8-1.8,8.5-3.3,5.5-4.7,4.6-16.4-2.3-19.6s-2.2-1.2-2.7-1.2h-26.5v24.1ZM261.5,21.7h-8.8c-.2-13.3-16.6-17.1-26.7-12-7.5,3.8-8.1,13.6-.2,17.6,12.2,6.2,36.8,3.2,38.7,22.2,2.4,25.3-37.8,29.5-50.8,13.5-3.4-4.2-4.9-9.8-4.8-15.1h8.8c-.3,15.2,17.6,19.4,29.5,15.2,8.4-2.9,11.7-13.8,4-19.1-10.8-7.4-37.9-3.9-39.9-21.4C209.2,4.3,226.7-1.2,241.7.1c11.2,1,20.4,10,19.9,21.5h-.1ZM52.6,21.7h-8.8c0-13.5-17.9-17.4-27.5-11.6-4.4,2.7-6.7,9.6-3.5,14,6.1,8.6,30.8,5.3,39.6,16.9,6.7,8.9,3.1,21.6-6.2,27C29.2,78-.9,71.7,0,48h8.8c-.4,15.2,17.6,19.4,29.5,15.2,9.1-3.2,11.6-14.5,2.8-19.7C27.9,35.8-.9,40.6,2.3,16.8,4.5.5,27.3-3,39.9,2.2c7.9,3.2,12.8,10.9,12.7,19.5ZM117.8,98.3v7.9h-38.5v21.9h35.9v7.9h-35.9v23.7h38.3l.7.6v7.2h-48.2v-69.2h47.7ZM363.1,98.3v7.9h-38.5v21.9h35.9v7.9h-35.9v23.7h38.3l.6.6v7.2h-48.1v-69.2h47.7ZM341.2,1.5v48c0,1.4,1.8,5.7,2.5,7.1,7.7,13.6,34.7,10.1,34.7-8.4V1.5h9.2v47.5c0,22.9-30.2,29.3-46.1,18.5-4.7-3.2-9.5-11.1-9.5-16.8V1.5h9.2,0ZM61.8,119.4h-9.2c-2.4-14.3-19.8-18.5-31.2-11.7-16.5,9.8-15.6,45.3,3.1,52.4,14.2,5.3,28.3-2.9,28.6-18.3h9.6c-2.1,18.4-14.8,29-33.5,27.6-39.2-3.1-37.5-69.5,0-72.3,15.9-1.2,30.1,5.4,32.6,22.3ZM120.9,70.7h-10.5l-7.1-20.5c-9.7-.7-19.6-.6-29.3-.3l-7.9,20.8h-9.6L83.3,2.2c.2-.5.6-.6,1.1-.7,1-.2,9,0,9.4.2l27.2,69h0ZM76.7,42.3h23.2l-11.2-32-12,32ZM461.2,1.5l20.1,32.9L502.1,1.5h9.9l-26.3,41v28.2h-9.2v-28.6L450.2,1.5h11ZM243.1,98.3v7.9h-22.8v61.3h-9.2v-61.3h-23.2v-7.9s55.2,0,55.2,0ZM126.2,1.5h9.2v69.2h-9.2V1.5Z"/>
</svg>