<?xml version="1.0" encoding="UTF-8"?>
<svg id="Layer_1" xmlns="http://www.w3.org/2000/svg" version="1.1" viewBox="0 0 511.9 165.7">
  <!-- Generator: Adobe Illustrator 30.0.0, SVG Export Plug-In . SVG Version: 2.1.1 Build 123)  -->
  <defs>
    <style>
      .st0 {
        fill: #f4f4ed;
      }
    </style>
  </defs>
  <path class="st0" d="M206.3,2.9l-25.9,160.4h41.5L247.8,2.9h-41.5ZM331.4,67.2c-14.5-7.3-23.4-12.3-23.4-19.8.2-6.8,7.5-13.8,23.9-13.8,13.5-.4,23.4,2.9,30.9,6.1l3.7,1.7,5.6-34.6c-8.2-3.2-21.2-6.8-37.2-6.8-41,0-69.8,21.8-70,53.1-.4,23,20.6,35.8,36.3,43.5,16.1,7.9,21.5,13,21.5,20-.2,10.8-13,15.7-24.9,15.7s-25.4-2.5-38.9-8.5l-5.5-2.6-5.8,36c9.7,4.4,27.7,8.4,46.3,8.5,43.5,0,71.9-21.5,72.2-54.8.2-18.3-10.9-32.2-34.8-43.7h.1ZM478.5,2.9h-32c-9.9,0-17.4,2.9-21.7,13.3l-61.6,147.1h43.5s7.2-19.8,8.7-24.1h53.2c1.2,5.6,4.9,24.1,4.9,24.1h38.4L478.5,2.9ZM427.4,106.5c3.4-9.2,16.5-44.9,16.5-44.9-.2.4,3.4-9.4,5.5-15.3l2.9,13.8s7.9,38.4,9.6,46.4h-34.5ZM145.8,3c0,0-40.6,109.3-40.6,109.3l-4.4-22.2-14.5-73.7c-2.4-10.2-9.7-13.2-18.8-13.5H.7l-.7,3.2c16.3,4.2,30.9,10.2,43.6,17.6l37,139.5h43.9L189.7,3h-43.9,0Z"/>
</svg>