<svg id="svg65" xmlns="http://www.w3.org/2000/svg" version="1.1" viewBox="0 0 512 111.4"><defs><style>.st0{fill:#fff}</style></defs><path class="st0" d="M55.7 0C24.9 0 0 25 0 55.7s25 55.7 55.7 55.7 55.7-25 55.7-55.7S86.4 0 55.7 0zm0 105.1C28.4 105.1 6.2 83 6.2 55.7S28.3 6.2 55.7 6.2s49.5 22.1 49.5 49.5-22.1 49.4-49.5 49.4z"/><path class="st0" d="M89.5 39.3 66.3 52.7l-2.8-1.6v-3.2l23.2-13.4-2.5-4.4L63.6 42v-4.2c0-3.3-1.5-6.3-3.8-8.3-.9-.8-1.5-2-1.5-3.3s.7-2.8 1.9-3.6c.4-.3.6-.7.6-1.2v-.5L56.7 9.2c-.1-.3-.4-.6-.8-.6s-.7.2-.8.6L51 20.9v.5c0 .5.2.9.6 1.2 1.1.8 1.9 2.1 1.9 3.6s-.6 2.5-1.5 3.3c-2.3 2-3.8 5-3.8 8.3V42L27.6 30.1l-2.5 4.4 23.2 13.4v3.2l-2.8 1.6-23.2-13.4-2.5 4.4 20.6 11.9-3.6 2.1c-2.9 1.7-4.7 4.4-5.3 7.5-.2 1.2-.9 2.3-2.1 2.9-1.3.7-2.8.7-4 .2-.4-.2-.9-.2-1.3 0 0 0-.3.2-.4.3L15.6 78c-.2.3-.3.7 0 1 .2.3.6.5.9.4l12.2-2.3s.3 0 .4-.2c.4-.2.7-.7.7-1.1.1-1.4.9-2.7 2.1-3.4 1.1-.6 2.4-.7 3.6-.3 2.9 1 6.2.8 9.1-.8l3.6-2.1V93h5.1V66.3l2.8-1.6 2.8 1.6V93H64V69.2l3.6 2.1c2.9 1.7 6.2 1.9 9.1.8 1.1-.4 2.5-.3 3.6.3 1.3.7 2 2 2.1 3.4 0 .4.3.9.7 1.1.1 0 .3.1.4.2l12.2 2.3c.4 0 .7 0 .9-.4.2-.3.1-.7 0-1h-.3l-8.1-9.4s-.2-.2-.4-.3c-.4-.2-.9-.2-1.3 0-1.2.6-2.7.6-4-.2-1.1-.6-1.9-1.7-2.1-2.9-.6-3-2.4-5.8-5.3-7.5l-3.6-2.1 20.6-11.9-2.5-4.4zM47.9 63.5l-6.8 3.9c-1.3.8-3 .3-3.8-1s-.3-3 1-3.8l6.8-3.9 2.8 1.6v3.2zM53 37.1c0-1.5 1.2-2.8 2.8-2.8s2.8 1.2 2.8 2.8v7.8l-2.8 1.6-2.8-1.6v-7.8zm5.9 20.4-3.2 1.8-3.2-1.8v-3.7l3.2-1.8 3.2 1.8v3.7zm14.3 5.1c1.3.8 1.8 2.5 1 3.8-.8 1.3-2.5 1.8-3.8 1l-6.8-3.9v-3.2l2.8-1.6 6.8 3.9zM426.8 44.4h-18.6V7.2h-16.9v97h16.9V61.6h18.6v42.6h17.4v-97h-17.4v37.2zM165.3 7.2 152.4 45 140.8 7.2h-16.9l18.8 59.5v37.5h18.9V64.8l19.6-57.6h-15.9zM279.6 53.3l-9.4-46.1h-26.5v97h15.2V31.1l13 63.6h14.2L297.6 30v74.2h17.8v-97h-27.6l-8.2 46.1zM496 7.2h-26.3l-17.7 97h15.7l3.8-22.6h19.6l3.6 22.6H512l-16-97zm-21.8 58.3 7.2-43.4 7 43.4h-14.2zM340.9 7.2l-17.7 97h15.7l3.8-22.6h19.6l3.6 22.6h17.3l-16-97h-26.3zm4.5 58.3 7.2-43.4 7 43.4h-14.2zM193.3 7.2l-17.7 97h15.7l3.8-22.6h19.6l3.6 22.6h17.3l-16-97h-26.3zm4.5 58.3 7.2-43.4 7 43.4h-14.2z"/></svg>