<?xml version="1.0" encoding="UTF-8"?>
<svg id="svg65" xmlns="http://www.w3.org/2000/svg" version="1.1" viewBox="0 0 512 111.4">
  <!-- Generator: Adobe Illustrator 30.0.0, SVG Export Plug-In . SVG Version: 2.1.1 Build 123)  -->
  <defs>
    <style>
      .st0 {
        fill: #fff;
      }

      .st1 {
        fill: #f4f4ed;
      }
    </style>
  </defs>
  <path class="st0" d="M55.7,0C24.9,0,0,25,0,55.7s25,55.7,55.7,55.7,55.7-25,55.7-55.7S86.4,0,55.7,0ZM55.7,105.1c-27.3,0-49.5-22.1-49.5-49.4S28.3,6.2,55.7,6.2s49.5,22.1,49.5,49.5-22.1,49.4-49.5,49.4Z"/>
  <path class="st1" d="M89.5,39.3l-23.2,13.4-2.8-1.6v-3.2l23.2-13.4-2.5-4.4-20.6,11.9v-4.2c0-3.3-1.5-6.3-3.8-8.3-.9-.8-1.5-2-1.5-3.3s.7-2.8,1.9-3.6c.4-.3.6-.7.6-1.2v-.5l-4.1-11.7c0-.3-.4-.6-.8-.6s-.7.2-.8.6l-4.1,11.7v.5c0,.5.2.9.6,1.2,1.1.8,1.9,2.1,1.9,3.6s-.6,2.5-1.5,3.3c-2.3,2-3.8,5-3.8,8.3v4.2l-20.6-11.9-2.5,4.4,23.2,13.4v3.2l-2.8,1.6-23.2-13.4-2.5,4.4,20.6,11.9-3.6,2.1c-2.9,1.7-4.7,4.4-5.3,7.5-.2,1.2-.9,2.3-2.1,2.9-1.3.7-2.8.7-4,.2-.4-.2-.9-.2-1.3,0,0,0-.3.2-.4.3l-8.1,9.4c-.2.3-.3.7,0,1,.2.3.6.5.9.4l12.2-2.3s.3,0,.4-.2c.4-.2.7-.7.7-1.1.1-1.4.9-2.7,2.1-3.4,1.1-.6,2.4-.7,3.6-.3,2.9,1,6.2.8,9.1-.8l3.6-2.1v23.8h5.1v-26.7l2.8-1.6,2.8,1.6v26.7h5.1v-23.8l3.6,2.1c2.9,1.7,6.2,1.9,9.1.8,1.1-.4,2.5-.3,3.6.3,1.3.7,2,2,2.1,3.4,0,.4.3.9.7,1.1,0,0,.3,0,.4.2l12.2,2.3c.4,0,.7,0,.9-.4.2-.3,0-.7,0-1h-.3l-8.1-9.4s-.2-.2-.4-.3c-.4-.2-.9-.2-1.3,0-1.2.6-2.7.6-4-.2-1.1-.6-1.9-1.7-2.1-2.9-.6-3-2.4-5.8-5.3-7.5l-3.6-2.1,20.6-11.9-2.5-4.4h0ZM47.9,63.5l-6.8,3.9c-1.3.8-3,.3-3.8-1s-.3-3,1-3.8l6.8-3.9,2.8,1.6v3.2ZM53,37.1c0-1.5,1.2-2.8,2.8-2.8s2.8,1.2,2.8,2.8v7.8l-2.8,1.6-2.8-1.6v-7.8ZM58.9,57.5l-3.2,1.8-3.2-1.8v-3.7l3.2-1.8,3.2,1.8v3.7ZM73.2,62.6c1.3.8,1.8,2.5,1,3.8s-2.5,1.8-3.8,1l-6.8-3.9v-3.2l2.8-1.6s6.8,3.9,6.8,3.9ZM426.8,44.4h-18.6V7.2h-16.9v97h16.9v-42.6h18.6v42.6h17.4V7.2h-17.4v37.2ZM165.3,7.2l-12.9,37.8-11.6-37.8h-16.9l18.8,59.5v37.5h18.9v-39.4l19.6-57.6s-15.9,0-15.9,0ZM279.6,53.3l-9.4-46.1h-26.5v97h15.2V31.1l13,63.6h14.2l11.5-64.7v74.2h17.8V7.2h-27.6l-8.2,46.1h0ZM496,7.2h-26.3l-17.7,97h15.7l3.8-22.6h19.6l3.6,22.6h17.3s-16-97-16-97ZM474.2,65.5l7.2-43.4,7,43.4h-14.2ZM340.9,7.2l-17.7,97h15.7l3.8-22.6h19.6l3.6,22.6h17.3l-16-97s-26.3,0-26.3,0ZM345.4,65.5l7.2-43.4,7,43.4h-14.2ZM193.3,7.2l-17.7,97h15.7l3.8-22.6h19.6l3.6,22.6h17.3L219.6,7.2h-26.3ZM197.8,65.5l7.2-43.4,7,43.4h-14.2Z"/>
</svg>