<?xml version="1.0" encoding="UTF-8"?>
<svg id="Layer_1" xmlns="http://www.w3.org/2000/svg" xmlns:v="https://vecta.io/nano" version="1.1" viewBox="0 0 589.4 585.2">
  <!-- Generator: Adobe Illustrator 30.0.0, SVG Export Plug-In . SVG Version: 2.1.1 Build 123)  -->
  <defs>
    <style>
      .st0 {
        fill: #fff;
      }

      .st1 {
        fill: #f0ff3d;
      }
    </style>
  </defs>
  <path class="st1" d="M99,98.9c25.2-25.3,55.1-45.4,88-59.3,34.1-14.4,70.4-21.8,107.8-21.8s73.6,7.3,107.8,21.8c32.9,13.9,62.8,34,88,59.3,6.7,6.7,13.1,13.8,19.2,21.2l13.8-11.2c-6.4-7.9-13.2-15.4-20.4-22.6-26.8-26.9-58.7-48.4-93.7-63.1C373.1,7.8,334.5,0,294.7,0s-78.3,7.8-114.7,23.2c-35,14.8-66.8,36.2-93.6,63.1-4.9,4.9-9.6,10-14.1,15.2l13.5,11.7c4.1-4.9,8.6-9.7,13.2-14.3Z"/>
  <path class="st1" d="M561.7,221.2c9.5,34.4,12.2,70.4,8,105.8-4.3,36.8-15.9,71.9-34.4,104.4s-42.8,60.4-72.2,82.9c-28.4,21.7-60.7,37.7-95.1,47.1-9.2,2.5-18.5,4.6-27.9,6.1l2.9,17.6c10-1.7,19.9-3.9,29.7-6.5,36.7-10,71-27,101.2-50.2,31.3-24,57.2-53.7,76.9-88.2,19.7-34.6,32-72,36.6-111.1,4.5-37.7,1.6-76-8.5-112.6-1.8-6.7-3.9-13.3-6.2-19.8l-16.8,5.9c2.1,6.1,4.1,12.3,5.8,18.6h0Z"/>
  <path class="st1" d="M216.4,560.2c-34.3-10.1-66.3-26.7-94.2-48.9-29-23.1-52.8-51.4-70.6-84.3-17.9-32.8-28.8-68.2-32.4-105-3.5-35.6-.1-71.5,10.1-105.7,2.7-9.2,5.9-18.2,9.5-27l-16.5-6.8c-3.9,9.4-7.2,19-10.1,28.7C1.3,247.7-2.3,285.9,1.4,323.7c3.9,39.3,15.5,76.9,34.5,111.8,19,34.9,44.3,65.1,75.2,89.7,29.7,23.7,63.8,41.4,100.2,52.1,6.6,2,13.3,3.7,20.1,5.2l3.8-17.4c-6.3-1.4-12.6-3-18.8-4.9h0Z"/>
  <path class="st0" d="M222.6,268.6l13.2-14.2,59,60,58.9-60,13.2,14.2-72.1,72.2-72.2-72.2h0Z"/>
</svg>