<?xml version="1.0" encoding="utf-8"?>
<svg version="1.1" id="Layer_1" xmlns:v="https://vecta.io/nano"
	 xmlns="http://www.w3.org/2000/svg" xmlns:xlink="http://www.w3.org/1999/xlink" x="0px" y="0px" viewBox="0 0 589.4 585.2"
	 style="enable-background:new 0 0 589.4 585.2;" xml:space="preserve">
<style type="text/css">
	.st0{fill:#00FA9A;}
	.st1{fill:#FFFFFF;}
</style>
<path class="st0" d="M99,98.9c25.2-25.3,55.1-45.4,88-59.3c34.1-14.4,70.4-21.8,107.8-21.8s73.6,7.3,107.8,21.8
	c32.9,13.9,62.8,34,88,59.3c6.7,6.7,13.1,13.8,19.2,21.2l13.8-11.2c-6.4-7.9-13.2-15.4-20.4-22.6c-26.8-26.9-58.7-48.4-93.7-63.1
	C373.1,7.8,334.5,0,294.7,0S216.4,7.8,180,23.2C145,38,113.2,59.4,86.4,86.3c-4.9,4.9-9.6,10-14.1,15.2l13.5,11.7
	C89.9,108.3,94.4,103.5,99,98.9z"/>
<path class="st0" d="M561.7,221.2c9.5,34.4,12.2,70.4,8,105.8c-4.3,36.8-15.9,71.9-34.4,104.4s-42.8,60.4-72.2,82.9
	C434.7,536,402.4,552,368,561.4c-9.2,2.5-18.5,4.6-27.9,6.1l2.9,17.6c10-1.7,19.9-3.9,29.7-6.5c36.7-10,71-27,101.2-50.2
	c31.3-24,57.2-53.7,76.9-88.2c19.7-34.6,32-72,36.6-111.1c4.5-37.7,1.6-76-8.5-112.6c-1.8-6.7-3.9-13.3-6.2-19.8l-16.8,5.9
	C558,208.7,560,214.9,561.7,221.2L561.7,221.2z"/>
<path class="st0" d="M216.4,560.2c-34.3-10.1-66.3-26.7-94.2-48.9c-29-23.1-52.8-51.4-70.6-84.3c-17.9-32.8-28.8-68.2-32.4-105
	c-3.5-35.6-0.1-71.5,10.1-105.7c2.7-9.2,5.9-18.2,9.5-27l-16.5-6.8c-3.9,9.4-7.2,19-10.1,28.7C1.3,247.7-2.3,285.9,1.4,323.7
	c3.9,39.3,15.5,76.9,34.5,111.8s44.3,65.1,75.2,89.7c29.7,23.7,63.8,41.4,100.2,52.1c6.6,2,13.3,3.7,20.1,5.2l3.8-17.4
	C228.9,563.7,222.6,562.1,216.4,560.2L216.4,560.2z"/>
<path class="st1" d="M222.6,268.6l13.2-14.2l59,60l58.9-60l13.2,14.2l-72.1,72.2L222.6,268.6L222.6,268.6z"/>
</svg>
