<svg xmlns="http://www.w3.org/2000/svg" width="843.375" height="33.609" viewBox="0 0 843.375 33.609">
  <path id="Path_1" data-name="Path 1" d="M314.551,39.172H303.91L301.707,47h-3.141l9.844-33.609H310L319.895,47h-3.117Zm-9.82-2.883h9.023L309.324,20.8l-.094-1.242-.094,1.242ZM399.127,47,385.112,22.531l-.281-1.453V47h-3.023V13.391h1.57l14.016,24.492.3,1.43V13.391h3.023V47Zm85.8-8.25a8.046,8.046,0,0,1-.645,3.211,8.253,8.253,0,0,1-4.406,4.395,8.13,8.13,0,0,1-3.223.645H466.009V13.391h10.641a8.13,8.13,0,0,1,3.223.645,8.222,8.222,0,0,1,4.406,4.406,8.13,8.13,0,0,1,.645,3.223ZM481.9,21.664a5.214,5.214,0,0,0-.422-2.1,5.486,5.486,0,0,0-2.871-2.871,5.214,5.214,0,0,0-2.1-.422h-7.477V44.117h7.477a5.214,5.214,0,0,0,2.1-.422,5.582,5.582,0,0,0,1.711-1.148,5.34,5.34,0,0,0,1.16-1.7,5.214,5.214,0,0,0,.422-2.1ZM565.515,47,556.4,32.656h-4.148V47h-3.023V13.391H559.89a8.046,8.046,0,0,1,3.211.645,8.253,8.253,0,0,1,4.395,4.406,8.13,8.13,0,0,1,.645,3.223v2.719a8.13,8.13,0,0,1-.645,3.223,8.253,8.253,0,0,1-4.395,4.406,8.046,8.046,0,0,1-3.211.645L569.007,47Zm-.4-25.336a5.214,5.214,0,0,0-.422-2.1,5.582,5.582,0,0,0-1.148-1.711,5.34,5.34,0,0,0-1.7-1.16,5.214,5.214,0,0,0-2.1-.422h-7.5v13.5h7.5a5.214,5.214,0,0,0,2.1-.422,5.34,5.34,0,0,0,1.7-1.16,5.582,5.582,0,0,0,1.148-1.711,5.214,5.214,0,0,0,.422-2.1ZM632.373,47V13.391h18.914v2.883H635.4V28.766h12.867v2.883H635.4V44.117h15.891V47Zm104.733,0h-1.57L729,21.711,728.9,20.4l-.141,1.313L722.27,47H720.7l-8.93-33.609h3.023l6.586,25.547.094,1.242.094-1.242,6.469-25.547h1.688l6.469,25.547.094,1.242.117-1.242,6.563-25.547h3.023Zm74.311-30.727V28.766h12.867v2.883H811.416V47h-3.023V13.391h18.914v2.883ZM889.712,47V13.391h3.023V47Zm87.225-8.25a8.046,8.046,0,0,1-.645,3.211,8.253,8.253,0,0,1-4.406,4.395,8.13,8.13,0,0,1-3.223.645H958.023V13.391h10.641a8.13,8.13,0,0,1,3.223.645,8.222,8.222,0,0,1,4.406,4.406,8.13,8.13,0,0,1,.645,3.223Zm-3.023-17.086a5.214,5.214,0,0,0-.422-2.1A5.486,5.486,0,0,0,970.62,16.7a5.214,5.214,0,0,0-2.1-.422h-7.477V44.117h7.477a5.214,5.214,0,0,0,2.1-.422,5.582,5.582,0,0,0,1.711-1.148,5.34,5.34,0,0,0,1.16-1.7,5.214,5.214,0,0,0,.422-2.1Zm86.733,17.086a8.046,8.046,0,0,1-.645,3.211,8.253,8.253,0,0,1-4.406,4.395,8.13,8.13,0,0,1-3.223.645h-10.641V13.391h10.641a8.13,8.13,0,0,1,3.223.645A8.222,8.222,0,0,1,1060,18.441a8.13,8.13,0,0,1,.645,3.223Zm-3.023-17.086a5.214,5.214,0,0,0-.422-2.1,5.486,5.486,0,0,0-2.871-2.871,5.214,5.214,0,0,0-2.1-.422h-7.477V44.117h7.477a5.214,5.214,0,0,0,2.1-.422,5.582,5.582,0,0,0,1.711-1.148,5.34,5.34,0,0,0,1.16-1.7,5.214,5.214,0,0,0,.422-2.1Zm75.694,9.258V47h-3.023V30.969l-8.7-17.578h3.258l6.914,13.969,6.914-13.969h3.258Z" transform="translate(-298.566 -13.391)" fill="#fff"/>
</svg>
